<svg width="24" height="24" viewBox="0 0 24 24" fill="none" xmlns="http://www.w3.org/2000/svg">
<path d="M17.4697 7.46967C17.7626 7.17678 18.2373 7.17678 18.5302 7.46967L22.5302 11.4697C22.8231 11.7626 22.8231 12.2373 22.5302 12.5302L18.5302 16.5302C18.2373 16.8231 17.7626 16.8231 17.4697 16.5302C17.1768 16.2373 17.1768 15.7626 17.4697 15.4697L20.9394 11.9999L17.4697 8.53022C17.1768 8.23732 17.1768 7.76256 17.4697 7.46967Z" fill="white"/>
<path d="M22 11.25C22.4142 11.25 22.75 11.5858 22.75 12C22.75 12.4142 22.4142 12.75 22 12.75H2C1.58579 12.75 1.25 12.4142 1.25 12C1.25 11.5858 1.58579 11.25 2 11.25H22Z" fill="white"/>
</svg>
