<svg width="24" height="24" viewBox="0 0 24 24" fill="none" xmlns="http://www.w3.org/2000/svg">
<path d="M5.46967 7.46967C5.76256 7.17678 6.23732 7.17678 6.53022 7.46967C6.82311 7.76256 6.82311 8.23732 6.53022 8.53022L3.06049 11.9999L6.53022 15.4697C6.82311 15.7626 6.82311 16.2373 6.53022 16.5302C6.23732 16.8231 5.76256 16.8231 5.46967 16.5302L1.46967 12.5302C1.17678 12.2373 1.17678 11.7626 1.46967 11.4697L5.46967 7.46967Z" fill="white"/>
<path d="M22 11.25C22.4142 11.25 22.75 11.5858 22.75 12C22.75 12.4142 22.4142 12.75 22 12.75H2C1.58579 12.75 1.25 12.4142 1.25 12C1.25 11.5858 1.58579 11.25 2 11.25H22Z" fill="white"/>
</svg>
