<svg width="16" height="16" viewBox="0 0 16 16" fill="none" xmlns="http://www.w3.org/2000/svg">
<g clip-path="url(#clip0_2009_21)">
<path d="M6.16602 9.77344C6.16602 9.4973 6.38988 9.27344 6.66602 9.27344C6.94216 9.27344 7.16602 9.4973 7.16602 9.77344V10.8626C7.16256 11.1767 7.07852 11.4849 6.92188 11.7572C6.77248 12.0168 6.56116 12.2347 6.30795 12.3939C5.95621 12.6556 5.67015 12.9955 5.47201 13.3867C5.27294 13.7798 5.16795 14.2137 5.16602 14.6543C5.16481 14.9304 4.9401 15.1534 4.66407 15.1523C4.38793 15.1511 4.16481 14.9259 4.16602 14.6497C4.16866 14.0538 4.31018 13.4666 4.57943 12.9349C4.84874 12.4032 5.23855 11.9414 5.71745 11.5866L5.75912 11.5586C5.88176 11.4855 5.98413 11.3822 6.05534 11.2585C6.12648 11.1348 6.1644 10.9948 6.16602 10.8522V9.77344Z" fill="black"/>
<path d="M8.83398 9.77344C8.83398 9.4973 9.05784 9.27344 9.33398 9.27344C9.61013 9.27344 9.83398 9.4973 9.83398 9.77344V10.8522L9.8418 10.9583C9.85655 11.0637 9.89129 11.1657 9.94466 11.2585C9.99809 11.3513 10.0692 11.4323 10.153 11.498L10.2409 11.5586L10.2826 11.5866C10.7615 11.9414 11.1513 12.4032 11.4206 12.9349C11.6898 13.4666 11.8313 14.0538 11.834 14.6497C11.8352 14.9259 11.6121 15.1511 11.3359 15.1523C11.0599 15.1534 10.8352 14.9304 10.834 14.6543C10.8321 14.2137 10.7271 13.7798 10.528 13.3867C10.3298 12.9954 10.0433 12.6557 9.69141 12.3939C9.4384 12.2347 9.22743 12.0166 9.07812 11.7572C8.92148 11.4849 8.83745 11.1767 8.83398 10.8626V9.77344Z" fill="black"/>
<path d="M14.1667 4.33268C14.1667 4.02326 14.0437 3.7266 13.8249 3.50781C13.6061 3.28902 13.3094 3.16602 13 3.16602H12C11.7239 3.16602 11.5 2.94216 11.5 2.66602C11.5 2.38987 11.7239 2.16602 12 2.16602H13C13.5746 2.16602 14.1256 2.39445 14.5319 2.80078C14.9382 3.20711 15.1667 3.75805 15.1667 4.33268C15.1667 4.90732 14.9382 5.45825 14.5319 5.86458C14.1256 6.27091 13.5746 6.49935 13 6.49935H12C11.7239 6.49935 11.5 6.27549 11.5 5.99935C11.5 5.72321 11.7239 5.49935 12 5.49935H13C13.3094 5.49935 13.6061 5.37634 13.8249 5.15755C14.0437 4.93876 14.1667 4.6421 14.1667 4.33268Z" fill="black"/>
<path d="M13.3327 14.166C13.6088 14.166 13.8327 14.3899 13.8327 14.666C13.8327 14.9422 13.6088 15.166 13.3327 15.166H2.66602C2.38987 15.166 2.16602 14.9422 2.16602 14.666C2.16602 14.3899 2.38987 14.166 2.66602 14.166H13.3327Z" fill="black"/>
<path d="M11.5 2.00065C11.5 1.95645 11.4824 1.91407 11.4512 1.88281C11.4199 1.85156 11.3775 1.83398 11.3333 1.83398H4.66667C4.62246 1.83398 4.58008 1.85156 4.54883 1.88281C4.51757 1.91407 4.5 1.95645 4.5 2.00065V6.00065C4.5 6.92891 4.86901 7.81888 5.52539 8.47526C6.18177 9.13164 7.07174 9.50065 8 9.50065C8.92826 9.50065 9.81823 9.13164 10.4746 8.47526C11.131 7.81888 11.5 6.92891 11.5 6.00065V2.00065ZM12.5 6.00065C12.5 7.19413 12.0262 8.33903 11.1823 9.18294C10.3384 10.0269 9.19347 10.5007 8 10.5007C6.80653 10.5007 5.66162 10.0269 4.81771 9.18294C3.97379 8.33903 3.5 7.19413 3.5 6.00065V2.00065C3.5 1.69123 3.623 1.39457 3.8418 1.17578C4.06059 0.956989 4.35725 0.833984 4.66667 0.833984H11.3333C11.6428 0.833984 11.9394 0.956989 12.1582 1.17578C12.377 1.39457 12.5 1.69123 12.5 2.00065V6.00065Z" fill="black"/>
<path d="M0.833984 4.33268C0.833984 3.75805 1.06242 3.20711 1.46875 2.80078C1.87508 2.39445 2.42602 2.16602 3.00065 2.16602H4.00065C4.27679 2.16602 4.50065 2.38987 4.50065 2.66602C4.50065 2.94216 4.27679 3.16602 4.00065 3.16602H3.00065C2.69123 3.16602 2.39457 3.28902 2.17578 3.50781C1.95699 3.7266 1.83398 4.02326 1.83398 4.33268C1.83398 4.6421 1.95699 4.93876 2.17578 5.15755C2.39457 5.37634 2.69123 5.49935 3.00065 5.49935H4.00065C4.27679 5.49935 4.50065 5.72321 4.50065 5.99935C4.50065 6.27549 4.27679 6.49935 4.00065 6.49935H3.00065C2.42602 6.49935 1.87508 6.27091 1.46875 5.86458C1.06242 5.45825 0.833984 4.90732 0.833984 4.33268Z" fill="black"/>
</g>
<defs>
<clipPath id="clip0_2009_21">
<rect width="16" height="16" fill="white"/>
</clipPath>
</defs>
</svg>
