<svg width="16" height="16" viewBox="0 0 16 16" fill="none" xmlns="http://www.w3.org/2000/svg">
<path d="M4.66699 4.00033V1.33366C4.66699 0.965469 4.96547 0.666992 5.33366 0.666992C5.70185 0.666992 6.00033 0.965469 6.00033 1.33366V4.00033C6.00033 4.36852 5.70185 4.66699 5.33366 4.66699C4.96547 4.66699 4.66699 4.36852 4.66699 4.00033Z" fill="white"/>
<path d="M10 4.00033V1.33366C10 0.965469 10.2985 0.666992 10.6667 0.666992C11.0349 0.666992 11.3333 0.965469 11.3333 1.33366V4.00033C11.3333 4.36852 11.0349 4.66699 10.6667 4.66699C10.2985 4.66699 10 4.36852 10 4.00033Z" fill="white"/>
<path d="M13.333 4C13.333 3.63181 13.0345 3.33333 12.6663 3.33333H3.33301C2.96482 3.33333 2.66634 3.63181 2.66634 4V13.3333C2.66634 13.7015 2.96482 14 3.33301 14H12.6663C13.0345 14 13.333 13.7015 13.333 13.3333V4ZM14.6663 13.3333C14.6663 14.4379 13.7709 15.3333 12.6663 15.3333H3.33301C2.22844 15.3333 1.33301 14.4379 1.33301 13.3333V4C1.33301 2.89543 2.22844 2 3.33301 2H12.6663C13.7709 2 14.6663 2.89543 14.6663 4V13.3333Z" fill="white"/>
<path d="M13.9997 6C14.3679 6 14.6663 6.29848 14.6663 6.66667C14.6663 7.03486 14.3679 7.33333 13.9997 7.33333H1.99967C1.63148 7.33333 1.33301 7.03486 1.33301 6.66667C1.33301 6.29848 1.63148 6 1.99967 6H13.9997Z" fill="white"/>
<path d="M5.34017 8.66699C5.70836 8.66699 6.00684 8.96547 6.00684 9.33366C6.00684 9.70185 5.70836 10.0003 5.34017 10.0003H5.33366C4.96547 10.0003 4.66699 9.70185 4.66699 9.33366C4.66699 8.96547 4.96547 8.66699 5.33366 8.66699H5.34017Z" fill="white"/>
<path d="M8.00618 8.66699C8.37437 8.66699 8.67285 8.96547 8.67285 9.33366C8.67285 9.70185 8.37437 10.0003 8.00618 10.0003H7.99967C7.63148 10.0003 7.33301 9.70185 7.33301 9.33366C7.33301 8.96547 7.63148 8.66699 7.99967 8.66699H8.00618Z" fill="white"/>
<path d="M10.6732 8.66699C11.0414 8.66699 11.3398 8.96547 11.3398 9.33366C11.3398 9.70185 11.0414 10.0003 10.6732 10.0003H10.6667C10.2985 10.0003 10 9.70185 10 9.33366C10 8.96547 10.2985 8.66699 10.6667 8.66699H10.6732Z" fill="white"/>
<path d="M5.34017 11.333C5.70836 11.333 6.00684 11.6315 6.00684 11.9997C6.00684 12.3679 5.70836 12.6663 5.34017 12.6663H5.33366C4.96547 12.6663 4.66699 12.3679 4.66699 11.9997C4.66699 11.6315 4.96547 11.333 5.33366 11.333H5.34017Z" fill="white"/>
<path d="M8.00618 11.333C8.37437 11.333 8.67285 11.6315 8.67285 11.9997C8.67285 12.3679 8.37437 12.6663 8.00618 12.6663H7.99967C7.63148 12.6663 7.33301 12.3679 7.33301 11.9997C7.33301 11.6315 7.63148 11.333 7.99967 11.333H8.00618Z" fill="white"/>
<path d="M10.6732 11.333C11.0414 11.333 11.3398 11.6315 11.3398 11.9997C11.3398 12.3679 11.0414 12.6663 10.6732 12.6663H10.6667C10.2985 12.6663 10 12.3679 10 11.9997C10 11.6315 10.2985 11.333 10.6667 11.333H10.6732Z" fill="white"/>
</svg>
