<svg width="16" height="16" viewBox="0 0 16 16" fill="none" xmlns="http://www.w3.org/2000/svg">
<path d="M12.6667 6.66602C12.6667 5.42834 12.1753 4.24106 11.3001 3.36589C10.425 2.49072 9.23768 1.99935 8 1.99935C6.76232 1.99935 5.57504 2.49072 4.69987 3.36589C3.8247 4.24106 3.33333 5.42834 3.33333 6.66602C3.33333 8.10556 4.14453 9.65743 5.19857 11.0423C6.21711 12.3805 7.38636 13.4636 8 13.9961C8.61364 13.4636 9.78289 12.3805 10.8014 11.0423C11.8555 9.65743 12.6667 8.10556 12.6667 6.66602ZM14 6.66602C14 8.55513 12.9649 10.4013 11.8626 11.8496C10.745 13.318 9.47345 14.4866 8.83659 15.0365C8.82524 15.0463 8.81342 15.0561 8.80143 15.0651C8.57041 15.2388 8.28904 15.3327 8 15.3327C7.71096 15.3327 7.42959 15.2388 7.19857 15.0651C7.18658 15.0561 7.17477 15.0463 7.16341 15.0365C6.52655 14.4866 5.25499 13.318 4.13737 11.8496C3.03508 10.4013 2 8.55513 2 6.66602C2 5.07472 2.63194 3.5484 3.75716 2.42318C4.88238 1.29796 6.4087 0.666016 8 0.666016C9.5913 0.666016 11.1176 1.29796 12.2428 2.42318C13.3681 3.5484 14 5.07472 14 6.66602Z" fill="#A8A8A8"/>
<path d="M9.33398 6.66667C9.33398 5.93029 8.73703 5.33333 8.00065 5.33333C7.26427 5.33333 6.66732 5.93029 6.66732 6.66667C6.66732 7.40305 7.26427 8 8.00065 8C8.73703 8 9.33398 7.40305 9.33398 6.66667ZM10.6673 6.66667C10.6673 8.13943 9.47341 9.33333 8.00065 9.33333C6.52789 9.33333 5.33398 8.13943 5.33398 6.66667C5.33398 5.19391 6.52789 4 8.00065 4C9.47341 4 10.6673 5.19391 10.6673 6.66667Z" fill="#A8A8A8"/>
</svg>
