<svg width="32" height="32" viewBox="0 0 32 32" fill="none" xmlns="http://www.w3.org/2000/svg">
<g clip-path="url(#clip0_101_726)">
<path d="M22.7905 1.27539H9.20935C4.82713 1.27539 1.27539 4.82776 1.27539 9.20998V22.7898C1.27539 27.1721 4.82776 30.7244 9.20998 30.7244H22.7898C27.1721 30.7244 30.7244 27.1721 30.7244 22.7898V9.20998C30.7244 4.82776 27.1727 1.27539 22.7905 1.27539Z" stroke="white" stroke-width="1.8" stroke-miterlimit="10"/>
<path d="M16.1085 23.217C20.0344 23.217 23.217 20.0344 23.217 16.1085C23.217 12.1826 20.0344 9 16.1085 9C12.1826 9 9 12.1826 9 16.1085C9 20.0344 12.1826 23.217 16.1085 23.217Z" stroke="white" stroke-width="1.8" stroke-miterlimit="10"/>
<path d="M24.6324 8.8899C25.4736 8.8899 26.1555 8.20799 26.1555 7.36682C26.1555 6.52565 25.4736 5.84375 24.6324 5.84375C23.7913 5.84375 23.1094 6.52565 23.1094 7.36682C23.1094 8.20799 23.7913 8.8899 24.6324 8.8899Z" fill="white"/>
</g>
<defs>
<clipPath id="clip0_101_726">
<rect width="32" height="32" fill="white"/>
</clipPath>
</defs>
</svg>
