<svg width="24" height="24" viewBox="0 0 24 24" fill="none" xmlns="http://www.w3.org/2000/svg">
<path d="M9.25 18V11C9.25 10.5858 9.58579 10.25 10 10.25C10.4142 10.25 10.75 10.5858 10.75 11V18C10.75 18.4142 10.4142 18.75 10 18.75C9.58579 18.75 9.25 18.4142 9.25 18Z" fill="#808080"/>
<path d="M12.0027 1.24611C12.4212 1.24754 12.8344 1.34428 13.2097 1.52931L21.075 5.37599L21.0759 5.37697C22.266 5.96002 21.8497 7.7488 20.5261 7.74904H3.47339C2.14581 7.74862 1.73859 5.95831 2.92359 5.37697L10.7898 1.52345L10.7918 1.52248C11.1689 1.33926 11.5834 1.24474 12.0027 1.24611ZM11.9978 2.74611C11.8073 2.74549 11.6194 2.78888 11.448 2.87208L4.55249 6.24904H19.446L12.5505 2.87697L12.5476 2.87501C12.3767 2.79059 12.1884 2.74676 11.9978 2.74611Z" fill="#808080"/>
<path d="M13.25 18V11C13.25 10.5858 13.5858 10.25 14 10.25C14.4142 10.25 14.75 10.5858 14.75 11V18C14.75 18.4142 14.4142 18.75 14 18.75C13.5858 18.75 13.25 18.4142 13.25 18Z" fill="#808080"/>
<path d="M17.25 18V11C17.25 10.5858 17.5858 10.25 18 10.25C18.4142 10.25 18.75 10.5858 18.75 11V18C18.75 18.4142 18.4142 18.75 18 18.75C17.5858 18.75 17.25 18.4142 17.25 18Z" fill="#808080"/>
<path d="M21 21.25C21.4142 21.25 21.75 21.5858 21.75 22C21.75 22.4142 21.4142 22.75 21 22.75H3C2.58579 22.75 2.25 22.4142 2.25 22C2.25 21.5858 2.58579 21.25 3 21.25H21Z" fill="#808080"/>
<path d="M5.25 18V11C5.25 10.5858 5.58579 10.25 6 10.25C6.41421 10.25 6.75 10.5858 6.75 11V18C6.75 18.4142 6.41421 18.75 6 18.75C5.58579 18.75 5.25 18.4142 5.25 18Z" fill="#808080"/>
</svg>
