<svg width="48" height="48" viewBox="0 0 48 48" fill="none" xmlns="http://www.w3.org/2000/svg">
<path d="M22.5 30V6C22.5 5.17157 23.1716 4.5 24 4.5C24.8284 4.5 25.5 5.17157 25.5 6V30C25.5 30.8284 24.8284 31.5 24 31.5C23.1716 31.5 22.5 30.8284 22.5 30Z" fill="#A3A3A3"/>
<path d="M4.5 38V30C4.5 29.1716 5.17157 28.5 6 28.5C6.82843 28.5 7.5 29.1716 7.5 30V38C7.5 38.663 7.76358 39.2987 8.23242 39.7676C8.70126 40.2364 9.33696 40.5 10 40.5H38C38.663 40.5 39.2987 40.2364 39.7676 39.7676C40.2364 39.2987 40.5 38.663 40.5 38V30C40.5 29.1716 41.1716 28.5 42 28.5C42.8284 28.5 43.5 29.1716 43.5 30V38C43.5 39.4587 42.9201 40.8572 41.8887 41.8887C40.8572 42.9201 39.4587 43.5 38 43.5H10C8.54131 43.5 7.14278 42.9201 6.11133 41.8887C5.07988 40.8572 4.5 39.4587 4.5 38Z" fill="#A3A3A3"/>
<path d="M32.9393 18.9393C33.5251 18.3536 34.4746 18.3536 35.0604 18.9393C35.6462 19.5251 35.6462 20.4746 35.0604 21.0604L25.0604 31.0604C24.4746 31.6462 23.5251 31.6462 22.9393 31.0604L12.9393 21.0604C12.3536 20.4746 12.3536 19.5251 12.9393 18.9393C13.5251 18.3536 14.4746 18.3536 15.0604 18.9393L23.9999 27.8788L32.9393 18.9393Z" fill="#A3A3A3"/>
</svg>
