<svg width="48" height="48" viewBox="0 0 48 48" fill="none" xmlns="http://www.w3.org/2000/svg">
<path d="M40.5 10C40.5 9.33696 40.2364 8.70126 39.7676 8.23242C39.2987 7.76358 38.663 7.5 38 7.5H10C9.33696 7.5 8.70126 7.76358 8.23242 8.23242C7.76358 8.70126 7.5 9.33696 7.5 10V38C7.5 38.663 7.76358 39.2987 8.23242 39.7676C8.70126 40.2364 9.33696 40.5 10 40.5H11.3789L29.1113 22.7676C30.136 21.7431 31.5237 21.1635 32.9727 21.1562C34.4215 21.149 35.8148 21.7144 36.8496 22.7285L40.5 26.3789V10ZM43.5 30C43.5 30.6067 43.1347 31.1545 42.5742 31.3867C42.0137 31.6188 41.3684 31.4895 40.9395 31.0605L34.75 24.8711C34.2798 24.4103 33.6467 24.1531 32.9883 24.1562C32.4116 24.1591 31.856 24.3618 31.4141 24.7246L31.2324 24.8887L15.6211 40.5H20.5996C21.428 40.5 22.0996 41.1716 22.0996 42C22.0996 42.8284 21.428 43.5 20.5996 43.5H10C8.54131 43.5 7.14278 42.9201 6.11133 41.8887C5.07988 40.8572 4.5 39.4587 4.5 38V10C4.5 8.54131 5.07988 7.14278 6.11133 6.11133C7.14278 5.07988 8.54131 4.5 10 4.5H38C39.4587 4.5 40.8572 5.07988 41.8887 6.11133C42.9201 7.14278 43.5 8.54131 43.5 10V30Z" fill="#A3A3A3"/>
<path d="M32.4999 33C32.4999 32.1716 33.1715 31.5 33.9999 31.5C34.8283 31.5 35.4999 32.1716 35.4999 33V44C35.4999 44.6067 35.1346 45.1545 34.5741 45.3867C34.0136 45.6188 33.3683 45.4895 32.9393 45.0605L26.9393 39.0605C26.3536 38.4748 26.3536 37.5252 26.9393 36.9395C27.5251 36.3537 28.4746 36.3537 29.0604 36.9395L32.4999 40.3789V33Z" fill="#A3A3A3"/>
<path d="M38.9393 36.9393C39.5251 36.3536 40.4746 36.3536 41.0604 36.9393C41.6462 37.5251 41.6462 38.4746 41.0604 39.0604L35.0604 45.0604C34.4746 45.6462 33.5251 45.6462 32.9393 45.0604C32.3536 44.4746 32.3536 43.5251 32.9393 42.9393L38.9393 36.9393Z" fill="#A3A3A3"/>
<path d="M20.5 18C20.5 16.6193 19.3807 15.5 18 15.5C16.6193 15.5 15.5 16.6193 15.5 18C15.5 19.3807 16.6193 20.5 18 20.5C19.3807 20.5 20.5 19.3807 20.5 18ZM23.5 18C23.5 21.0376 21.0376 23.5 18 23.5C14.9624 23.5 12.5 21.0376 12.5 18C12.5 14.9624 14.9624 12.5 18 12.5C21.0376 12.5 23.5 14.9624 23.5 18Z" fill="#A3A3A3"/>
</svg>
